<svg xmlns="http://www.w3.org/2000/svg" xmlns:xlink="http://www.w3.org/1999/xlink" width="120" height="64" viewBox="50 50 250 250">
<rect data-name="background" width="100%" height="100%" fill="#ffffff"/><g data-name="watermark" class="watermark-logodesign" stroke="#ffffff" transform="translate(40, 280) scale(1.5) rotate(-45)" style="opacity:0.040000010281801224;"><path fill="#000000" d="M19.52,53.48c-10.32,0-17.72-7.64-17.72-17.32c0-10,8.2-17.76,18.32-17.76c10.36,0,17.76,7.48,17.76,17.56c0,6.24-3.56,9.84-7.84,9.84c-2.96,0-4.44-1.56-5.04-3.72c-1.48,2-3.64,3.08-6.16,3.08c-4.84,0-8.52-3.8-8.52-8.96c0-5.2,3.64-9,8.56-9c2.36,0,4.52,0.96,6,3l0-2.52l3.44,0l0,12.48c0,1.68,0.6,2.96,2.24,2.96c2.12,0,4.2-2.52,4.2-7.12c0-8.28-5.76-14.68-14.6-14.68c-8.48,0-15.24,6.44-15.24,14.84c0,8.16,6.24,14.4,14.68,14.4c2.88,0,6.04-0.68,8.2-2.4l0.8,2.88c-2.36,1.68-5.68,2.44-9.08,2.44z M19.36,41.92c3.24,0,5.64-2.4,5.64-5.76c0-3.32-2.36-5.68-5.64-5.68c-3.2,0-5.48,2.36-5.48,5.68s2.32,5.76,5.48,5.76z M46.84,42.4l14.72,0l0,4l-19.08,0l0-28l4.36,0l0,24z M74.8,46.92c-6.16,0-10.68-4.56-10.68-10.6c0-6,4.52-10.56,10.68-10.56s10.68,4.56,10.68,10.56c0,6.04-4.52,10.6-10.68,10.6z M74.8,43.12c3.84,0,6.6-2.92,6.6-6.76c0-3.88-2.76-6.8-6.6-6.8s-6.6,2.92-6.6,6.8c0,3.84,2.76,6.76,6.6,6.76z M105.68,26.28l4.2,0l0,19.4c0,5.6-4.08,9.64-10.2,9.64c-4.84,0-7.92-2.24-9.6-5.24l3.68-1.36c1.2,2,3.12,3.08,6,3.08c3.84,0,5.88-2.64,5.92-6.08l0-2.96c-1.56,2.12-4,3.4-7.08,3.4c-5.84,0-10.04-4.44-10.04-10.2c0-5.96,4.2-10.2,10.04-10.2c3.08,0,5.52,1.28,7.08,3.36l0-2.84z M99.24,42.4c3.72,0,6.56-2.72,6.56-6.44s-2.84-6.4-6.56-6.4c-3.88,0-6.56,2.68-6.56,6.4s2.68,6.44,6.56,6.44z M124.92,46.92c-6.16,0-10.68-4.56-10.68-10.6c0-6,4.52-10.56,10.68-10.56s10.68,4.56,10.68,10.56c0,6.04-4.52,10.6-10.68,10.6z M124.92,43.12c3.84,0,6.6-2.92,6.6-6.76c0-3.88-2.76-6.8-6.6-6.8s-6.6,2.92-6.6,6.8c0,3.84,2.76,6.76,6.6,6.76z M141.88,46.68c-1.56,0-2.76-1.2-2.76-2.72c0-1.48,1.2-2.68,2.76-2.68s2.76,1.2,2.76,2.68c0,1.52-1.2,2.72-2.76,2.72z M158.2,46.92c-5.68,0-10-4.52-10-10.6c0-6.04,4.32-10.56,10-10.56c3.24,0,5.72,1.4,7.24,3.56l0-3.04l4.16,0l0,20.12l-4.16,0l0-3.04c-1.52,2.16-4,3.56-7.24,3.56z M158.88,43.16c3.68,0,6.64-2.88,6.64-6.84c0-3.92-2.96-6.8-6.64-6.8c-3.84,0-6.56,2.84-6.56,6.8s2.72,6.84,6.56,6.84z M186.6,25.76c5.68,0,10.04,4.52,10.04,10.56c0,6.08-4.36,10.6-10.04,10.6c-3.2,0-5.68-1.4-7.2-3.56l0,11.44l-4.2,0l0-28.52l4.2,0l0,3.04c1.52-2.16,4-3.56,7.2-3.56z M185.92,43.16c3.84,0,6.56-2.88,6.56-6.84s-2.72-6.8-6.56-6.8c-3.68,0-6.64,2.88-6.64,6.8c0,3.96,2.96,6.84,6.64,6.84z M212.36,25.76c5.68,0,10.04,4.52,10.04,10.56c0,6.08-4.36,10.6-10.04,10.6c-3.2,0-5.68-1.4-7.2-3.56l0,11.44l-4.2,0l0-28.52l4.2,0l0,3.04c1.52-2.16,4-3.56,7.2-3.56z M211.68,43.16c3.84,0,6.56-2.88,6.56-6.84s-2.72-6.8-6.56-6.8c-3.68,0-6.64,2.88-6.64,6.8c0,3.96,2.96,6.84,6.64,6.84z"/></g><g data-name="icon" fill="#333333" data="id:8069401" transform="translate(130.87074369396777,98.75853774927887) scale(1.382591376009181)">
    
 <path d="m88.023 4.8672h-76.082c-5.1836 0-9.4414 4.2578-9.4414 9.4023v59.789c0 5.2188 4.2578 9.4023 9.4414 9.4023h27.285c1.2578-0.73828 2.1094-2.1094 2.1094-3.6289v-1.2578l-29.395 0.003906c-2.5156 0-4.5156-2-4.5156-4.5156l-0.035156-45.465h85.188v45.465c0 2.5156-2.0352 4.5156-4.5547 4.5156h-29.359v1.2578c0 1.5195 0.85156 2.8867 2.1094 3.6289h27.25c5.1836 0 9.4766-4.1836 9.4766-9.4023v-59.793c0-5.1445-4.2969-9.4023-9.4766-9.4023zm-72.715 14.809h-0.73828c-1.6641 0-2.9609-1.2969-2.9609-2.9258 0-1.6641 1.2969-2.9609 2.9609-2.9609h0.73828c1.668 0 2.9609 1.2969 2.9609 2.9609 0 1.6289-1.2969 2.9258-2.9609 2.9258zm10.184 0h-0.73828c-1.7031 0-3.0352-1.2969-3.0352-2.9258 0-1.6641 1.332-2.9609 3.0352-2.9609h0.73828c1.5547 0 2.8867 1.2969 2.8867 2.9609 0 1.6289-1.332 2.9258-2.8867 2.9258zm10.07 0h-0.74219c-1.5547 0-2.9258-1.2969-2.9258-2.9258 0-1.6641 1.3711-2.9609 2.9258-2.9609h0.74219c1.6641 0 2.9961 1.2969 2.9961 2.9609 0 1.6289-1.332 2.9258-2.9961 2.9258zm50.719-0.26172h-17.809c-1.4414 0-2.6641-1.1836-2.6641-2.6641 0-1.5195 1.2227-2.6289 2.6641-2.6289h17.809c1.4414 0 2.6289 1.1094 2.6289 2.6289 0 1.4805-1.1836 2.6641-2.6289 2.6641z"/>
 <path d="m69.074 89.562-7.1641-0.76562c-4.5898-0.49219-8.0547-4.3477-8.0547-8.9648v-26.441c1.6211-0.92578 2.8477-2.3789 3.4805-4.1289l8.6875-0.058594-7.2227 14.316c-0.27344 0.54688-0.34375 1.1836-0.1875 1.7461 1.5898 5.7109 6.0078 8.4297 11.258 8.4297s9.6641-2.7188 11.254-8.4258c0.15625-0.5625 0.089844-1.1992-0.18359-1.7461l-9.3047-18.438c-0.32422-0.64453-0.94922-1.0742-1.6289-1.1211l-12.637 0.085937c-0.62109-1.8008-1.8594-3.2891-3.5156-4.2344v-2.4102c0-2.1289-1.7305-3.8594-3.8594-3.8594s-3.8594 1.7305-3.8594 3.8594v2.4102c-1.6562 0.94531-2.8906 2.4375-3.5156 4.2344l-12.613-0.085937c-0.70703 0.054687-1.3281 0.48438-1.6523 1.1211l-9.3008 18.438c-0.27344 0.54687-0.34375 1.1836-0.1875 1.7461 1.5898 5.707 6.0078 8.4258 11.258 8.4258 5.2461 0 9.6641-2.7188 11.258-8.4297 0.15625-0.5625 0.085938-1.1953-0.1875-1.7461l-7.2266-14.316 8.6875 0.058594c0.63672 1.75 1.8594 3.2031 3.4805 4.1289v26.441c0 4.6172-3.4609 8.4727-8.0547 8.9648l-7.1602 0.76562c-0.79297 0.09375-1.3906 0.75781-1.3906 1.5469v2.4688c0 0.85547 0.69922 1.5547 1.5547 1.5547h37.82c0.85547 0 1.5547-0.69531 1.5547-1.5547v-2.4688c0-0.78906-0.59766-1.457-1.3867-1.5469zm6.8086-26.801h-12.031l6.0195-11.922 6.0156 11.922zm-39.742 0h-12.031l6.0156-11.922z"/>

    </g><g data-name="business_name" fill="#333333" data="id:166" transform="translate(61.986879714852535,228.07724800992136) scale(1.6379435071238067)"><path d="M10.08,38.32l7,0c1.6,0,2.32-0.4,3.88-6.88l1.44,0s-0.32,4.32-0.28,6.48l0,2.08l-20.72,0l0-1.56l3.8,0l0-23.32l-3.8,0l0-1.56l12.44,0l0,1.56l-3.76,0l0,23.2z M24.88,31.08c0-6.16,2.84-9.72,9.04-9.72c6.24,0,8.96,3.4,8.96,9.48c0,6.4-3.4,9.72-8.96,9.72c-6.04,0-9.04-3.52-9.04-9.48z M33.92,39.16c3.28,0,4.28-2.92,4.28-8.32c0-5.28-1-8.08-4.28-8.08c-3.24,0-4.36,2.88-4.36,8.32c0,5.24,1.08,8.08,4.36,8.08z M45.72,35.8c0-4.48,5.72-6.04,10.88-6.04l0-3.56c0-2.4-0.64-3.44-3-3.44c-2.4,0-3.24,1.08-3.24,3.32c0,0.64,0.04,1.2,0.12,1.84c-2.8,0.12-4-1.16-4-2.76c0-2.32,2.68-3.8,7.4-3.8c5.08,0,7.2,1.6,7.2,5.72l0,9.84c0,0.96,0.28,1.44,0.8,1.44c1.08,0,1.56-1.76,1.72-2.36l1.56,0.48c-0.32,1.48-1.52,3.92-4.36,3.92c-1.88,0-3.28-0.92-3.64-2.88l-0.08,0c-1.04,1.48-2.76,3.04-5.64,3.04s-5.72-1.56-5.72-4.76z M50.36,35.8c0,1.84,0.76,2.84,2.12,2.84c1.96,0,4.12-2.2,4.12-4.28l0-2.92c-4.24,0-6.24,1.32-6.24,4.36z M65.92,40l0-1.56l3.08,0l0-14.96l-3.44,0l0-1.56l7.6,0l0,4.36l0.08,0c0.72-2.12,2.44-4.92,5.72-4.92c2.12,0,4,1.12,4,3.2c0,1.8-1.44,3.16-4.04,3.08c0.08-0.76,0.08-1.44,0.08-2.12c0-1.24-0.24-2.08-1.12-2.08c-2.28,0-4.44,5.04-4.44,8.96l0,6.04l3.44,0l0,1.56l-10.96,0z  M102.16,38.32l7,0c1.6,0,2.32-0.4,3.88-6.88l1.44,0s-0.32,4.32-0.28,6.48l0,2.08l-20.72,0l0-1.56l3.8,0l0-23.32l-3.8,0l0-1.56l12.44,0l0,1.56l-3.76,0l0,23.2z M116.68,35.8c0-4.48,5.72-6.04,10.88-6.04l0-3.56c0-2.4-0.64-3.44-3-3.44c-2.4,0-3.24,1.08-3.24,3.32c0,0.64,0.04,1.2,0.12,1.84c-2.8,0.12-4-1.16-4-2.76c0-2.32,2.68-3.8,7.4-3.8c5.08,0,7.2,1.6,7.2,5.72l0,9.84c0,0.96,0.28,1.44,0.8,1.44c1.08,0,1.56-1.76,1.72-2.36l1.56,0.48c-0.32,1.48-1.52,3.92-4.36,3.92c-1.88,0-3.28-0.92-3.64-2.88l-0.08,0c-1.04,1.48-2.76,3.04-5.64,3.04s-5.72-1.56-5.72-4.76z M121.32,35.8c0,1.84,0.76,2.84,2.12,2.84c1.96,0,4.12-2.2,4.12-4.28l0-2.92c-4.24,0-6.24,1.32-6.24,4.36z M145.04,40.4l-6.76-16.92l-2.4,0l0-1.56l10.12,0l0,1.56l-2.96,0l4.2,10.84l4.68-12.4l1.72,0l5,12.48l4.16-10.92l-2.84,0l0-1.56l7.16,0l0,1.56l-2.44,0l-6.52,16.92l-1.72,0l-4.96-12.36l-4.72,12.36l-1.72,0z"/></g></svg>
